<svg width="25" height="25" viewBox="0 0 25 25" fill="none" xmlns="http://www.w3.org/2000/svg">
<g clip-path="url(#clip0_3306_42101)">
<path d="M4.5 13.7998C6.28309 14.0117 7.94305 14.8173 9.21276 16.087C10.4825 17.3568 11.2881 19.0167 11.5 20.7998C12.3839 20.2902 13.1233 19.5636 13.6482 18.6887C14.1732 17.8138 14.4663 16.8195 14.5 15.7998C16.1791 15.2091 17.6454 14.1338 18.7133 12.7098C19.7813 11.2858 20.4031 9.57714 20.5 7.7998C20.5 7.00416 20.1839 6.24109 19.6213 5.67848C19.0587 5.11588 18.2956 4.7998 17.5 4.7998C15.7227 4.89671 14.014 5.51847 12.59 6.58646C11.166 7.65444 10.0907 9.12069 9.5 10.7998C8.48026 10.8335 7.48596 11.1266 6.61106 11.6516C5.73617 12.1765 5.00959 12.9159 4.5 13.7998Z" stroke="#008080" stroke-width="2" stroke-linecap="round" stroke-linejoin="round"/>
<path d="M7.50341 14.7998C6.46264 15.3874 5.62106 16.2724 5.08657 17.3414C4.55207 18.4104 4.34901 19.6146 4.50341 20.7998C5.68857 20.9542 6.89284 20.7511 7.96183 20.2166C9.03083 19.6821 9.91584 18.8406 10.5034 17.7998" stroke="#008080" stroke-width="2" stroke-linecap="round" stroke-linejoin="round"/>
<path d="M14.5 9.7998C14.5 10.065 14.6054 10.3194 14.7929 10.5069C14.9804 10.6944 15.2348 10.7998 15.5 10.7998C15.7652 10.7998 16.0196 10.6944 16.2071 10.5069C16.3946 10.3194 16.5 10.065 16.5 9.7998C16.5 9.53459 16.3946 9.28023 16.2071 9.0927C16.0196 8.90516 15.7652 8.7998 15.5 8.7998C15.2348 8.7998 14.9804 8.90516 14.7929 9.0927C14.6054 9.28023 14.5 9.53459 14.5 9.7998Z" stroke="#008080" stroke-width="2" stroke-linecap="round" stroke-linejoin="round"/>
</g>
<defs>
<clipPath id="clip0_3306_42101">
<rect width="24" height="24" fill="white" transform="translate(0.5 0.799805)"/>
</clipPath>
</defs>
</svg>
