<svg width="19" height="19" viewBox="0 0 19 19" fill="none" xmlns="http://www.w3.org/2000/svg">
<path fill-rule="evenodd" clip-rule="evenodd" d="M9.40901 3.70881C9.83097 3.28686 10.4033 3.0498 11 3.0498C11.5967 3.0498 12.169 3.28686 12.591 3.70881C13.0129 4.13077 13.25 4.70307 13.25 5.2998C13.25 5.89654 13.0129 6.46884 12.591 6.89079C12.169 7.31275 11.5967 7.5498 11 7.5498C10.4033 7.5498 9.83097 7.31275 9.40901 6.89079C8.98705 6.46884 8.75 5.89654 8.75 5.2998C8.75 4.70307 8.98705 4.13077 9.40901 3.70881ZM11 4.5498C10.8011 4.5498 10.6103 4.62882 10.4697 4.76947C10.329 4.91013 10.25 5.10089 10.25 5.2998C10.25 5.49872 10.329 5.68948 10.4697 5.83013C10.6103 5.97079 10.8011 6.0498 11 6.0498C11.1989 6.0498 11.3897 5.97079 11.5303 5.83013C11.671 5.68948 11.75 5.49872 11.75 5.2998C11.75 5.10089 11.671 4.91013 11.5303 4.76947C11.3897 4.62882 11.1989 4.5498 11 4.5498Z" fill="#6C6969"/>
<path fill-rule="evenodd" clip-rule="evenodd" d="M2.75 5.2998C2.75 4.88559 3.08579 4.5498 3.5 4.5498H9.5C9.91421 4.5498 10.25 4.88559 10.25 5.2998C10.25 5.71402 9.91421 6.0498 9.5 6.0498H3.5C3.08579 6.0498 2.75 5.71402 2.75 5.2998Z" fill="#6C6969"/>
<path fill-rule="evenodd" clip-rule="evenodd" d="M11.75 5.2998C11.75 4.88559 12.0858 4.5498 12.5 4.5498H15.5C15.9142 4.5498 16.25 4.88559 16.25 5.2998C16.25 5.71402 15.9142 6.0498 15.5 6.0498H12.5C12.0858 6.0498 11.75 5.71402 11.75 5.2998Z" fill="#6C6969"/>
<path fill-rule="evenodd" clip-rule="evenodd" d="M4.90901 8.20881C5.33097 7.78686 5.90326 7.5498 6.5 7.5498C7.09674 7.5498 7.66903 7.78686 8.09099 8.20881C8.51295 8.63077 8.75 9.20307 8.75 9.7998C8.75 10.3965 8.51295 10.9688 8.09099 11.3908C7.66903 11.8128 7.09674 12.0498 6.5 12.0498C5.90326 12.0498 5.33097 11.8128 4.90901 11.3908C4.48705 10.9688 4.25 10.3965 4.25 9.7998C4.25 9.20307 4.48705 8.63077 4.90901 8.20881ZM6.5 9.0498C6.30109 9.0498 6.11032 9.12882 5.96967 9.26947C5.82902 9.41013 5.75 9.60089 5.75 9.7998C5.75 9.99872 5.82902 10.1895 5.96967 10.3301C6.11032 10.4708 6.30109 10.5498 6.5 10.5498C6.69891 10.5498 6.88968 10.4708 7.03033 10.3301C7.17098 10.1895 7.25 9.99872 7.25 9.7998C7.25 9.60089 7.17098 9.41013 7.03033 9.26947C6.88968 9.12882 6.69891 9.0498 6.5 9.0498Z" fill="#6C6969"/>
<path fill-rule="evenodd" clip-rule="evenodd" d="M2.75 9.7998C2.75 9.38559 3.08579 9.0498 3.5 9.0498H5C5.41421 9.0498 5.75 9.38559 5.75 9.7998C5.75 10.214 5.41421 10.5498 5 10.5498H3.5C3.08579 10.5498 2.75 10.214 2.75 9.7998Z" fill="#6C6969"/>
<path fill-rule="evenodd" clip-rule="evenodd" d="M7.25 9.7998C7.25 9.38559 7.58579 9.0498 8 9.0498H15.5C15.9142 9.0498 16.25 9.38559 16.25 9.7998C16.25 10.214 15.9142 10.5498 15.5 10.5498H8C7.58579 10.5498 7.25 10.214 7.25 9.7998Z" fill="#6C6969"/>
<path fill-rule="evenodd" clip-rule="evenodd" d="M11.659 12.7088C12.081 12.2869 12.6533 12.0498 13.25 12.0498C13.8467 12.0498 14.419 12.2869 14.841 12.7088C15.2629 13.1308 15.5 13.7031 15.5 14.2998C15.5 14.8965 15.2629 15.4688 14.841 15.8908C14.419 16.3128 13.8467 16.5498 13.25 16.5498C12.6533 16.5498 12.081 16.3128 11.659 15.8908C11.2371 15.4688 11 14.8965 11 14.2998C11 13.7031 11.2371 13.1308 11.659 12.7088ZM13.25 13.5498C13.0511 13.5498 12.8603 13.6288 12.7197 13.7695C12.579 13.9101 12.5 14.1009 12.5 14.2998C12.5 14.4987 12.579 14.6895 12.7197 14.8301C12.8603 14.9708 13.0511 15.0498 13.25 15.0498C13.4489 15.0498 13.6397 14.9708 13.7803 14.8301C13.921 14.6895 14 14.4987 14 14.2998C14 14.1009 13.921 13.9101 13.7803 13.7695C13.6397 13.6288 13.4489 13.5498 13.25 13.5498Z" fill="#6C6969"/>
<path fill-rule="evenodd" clip-rule="evenodd" d="M2.75 14.2998C2.75 13.8856 3.08579 13.5498 3.5 13.5498H11.75C12.1642 13.5498 12.5 13.8856 12.5 14.2998C12.5 14.714 12.1642 15.0498 11.75 15.0498H3.5C3.08579 15.0498 2.75 14.714 2.75 14.2998Z" fill="#6C6969"/>
<path fill-rule="evenodd" clip-rule="evenodd" d="M14 14.2998C14 13.8856 14.3358 13.5498 14.75 13.5498H15.5C15.9142 13.5498 16.25 13.8856 16.25 14.2998C16.25 14.714 15.9142 15.0498 15.5 15.0498H14.75C14.3358 15.0498 14 14.714 14 14.2998Z" fill="#6C6969"/>
</svg>
