<svg width="21" height="21" viewBox="0 0 21 21" fill="none" xmlns="http://www.w3.org/2000/svg">
<path fill-rule="evenodd" clip-rule="evenodd" d="M6.28732 2.97524C7.09616 2.64021 7.96306 2.46777 8.83854 2.46777C9.71402 2.46777 10.5809 2.64021 11.3898 2.97524C12.1986 3.31027 12.9335 3.80134 13.5526 4.42039C14.1716 5.03945 14.6627 5.77438 14.9977 6.58322C15.3328 7.39206 15.5052 8.25896 15.5052 9.13444C15.5052 10.0099 15.3328 10.8768 14.9977 11.6857C14.6627 12.4945 14.1716 13.2294 13.5526 13.8485C12.9335 14.4675 12.1986 14.9586 11.3898 15.2936C10.5809 15.6287 9.71402 15.8011 8.83854 15.8011C7.96306 15.8011 7.09616 15.6287 6.28732 15.2936C5.47848 14.9586 4.74355 14.4675 4.1245 13.8485C3.50544 13.2294 3.01438 12.4945 2.67934 11.6857C2.34431 10.8768 2.17188 10.0099 2.17188 9.13444C2.17188 8.25896 2.34431 7.39205 2.67934 6.58322C3.01438 5.77438 3.50544 5.03945 4.1245 4.42039C4.74355 3.80134 5.47848 3.31027 6.28732 2.97524ZM8.83854 4.13444C8.18193 4.13444 7.53175 4.26377 6.92512 4.51504C6.3185 4.76632 5.7673 5.13461 5.30301 5.59891C4.83871 6.0632 4.47042 6.6144 4.21914 7.22102C3.96787 7.82765 3.83854 8.47783 3.83854 9.13444C3.83854 9.79105 3.96787 10.4412 4.21914 11.0479C4.47042 11.6545 4.83871 12.2057 5.30301 12.67C5.7673 13.1343 6.3185 13.5026 6.92512 13.7538C7.53175 14.0051 8.18193 14.1344 8.83854 14.1344C9.49515 14.1344 10.1453 14.0051 10.752 13.7538C11.3586 13.5026 11.9098 13.1343 12.3741 12.67C12.8384 12.2057 13.2067 11.6545 13.4579 11.0479C13.7092 10.4412 13.8385 9.79105 13.8385 9.13444C13.8385 8.47783 13.7092 7.82765 13.4579 7.22102C13.2067 6.6144 12.8384 6.0632 12.3741 5.59891C11.9098 5.13461 11.3586 4.76632 10.752 4.51504C10.1453 4.26377 9.49515 4.13444 8.83854 4.13444Z" fill="#6C6969"/>
<path fill-rule="evenodd" clip-rule="evenodd" d="M12.416 12.7119C12.7414 12.3864 13.269 12.3864 13.5945 12.7119L18.5945 17.7119C18.9199 18.0373 18.9199 18.5649 18.5945 18.8904C18.269 19.2158 17.7414 19.2158 17.416 18.8904L12.416 13.8904C12.0905 13.5649 12.0905 13.0373 12.416 12.7119Z" fill="#6C6969"/>
</svg>
