<svg width="83" height="25" viewBox="0 0 83 25" fill="none" xmlns="http://www.w3.org/2000/svg">
<path d="M19.8664 18.6726V24.7046H0.515625V20.9709L6.72781 13.5109C7.20396 13.734 7.73218 13.9274 8.30504 14.0836L10.8494 14.7604C10.9759 14.7976 11.0949 14.8273 11.2065 14.8571C11.2512 14.872 11.3033 14.8868 11.3553 14.9092C11.4 14.9315 11.452 14.9463 11.4967 14.9612C11.8836 15.1025 12.2927 15.2885 12.4415 15.4224C12.6647 15.6232 12.7838 15.9058 12.7838 16.2703C12.7838 16.3074 12.7838 16.3372 12.7838 16.3744C12.754 16.843 12.5308 17.2 12.1067 17.4752C11.6678 17.7504 10.9238 17.8619 9.8897 17.8024C9.73347 17.795 9.45076 17.7652 9.19781 17.7355C9.13829 17.7281 9.07877 17.7206 9.02669 17.7132C8.95973 17.6983 8.90022 17.6909 8.85558 17.6909L8.63239 17.9586L6.09543 21.0007H13.6542C14.9636 21.0007 16.0424 19.9742 16.1168 18.6801H19.8515L19.8664 18.6726Z" fill="#262626"/>
<path d="M9.0228 10.7879C9.0228 10.7879 9.0076 10.7879 9 10.7803C9 10.7803 9.0152 10.7803 9.0228 10.7879Z" fill="white"/>
<path d="M9 10.7803C9 10.7803 9.0152 10.7879 9.0228 10.7955C9.0228 10.7955 9.0076 10.7879 9 10.7803ZM9 10.7803C9 10.7803 9.0152 10.7879 9.0228 10.7955C9.0228 10.7955 9.0076 10.7879 9 10.7803ZM9 10.7803C9 10.7803 9.0152 10.7879 9.0228 10.7955C9.0228 10.7955 9.0076 10.7879 9 10.7803Z" fill="#262626"/>
<path d="M19.8397 0.799805V4.48892L16.9977 7.91027C16.3281 7.61276 15.6511 7.30782 14.9815 6.99543C15.227 7.15162 15.4725 7.30782 15.718 7.46401C15.8073 7.51607 15.8966 7.57557 15.9784 7.62764C16.1123 7.71689 16.2537 7.79871 16.3951 7.88052C16.4397 7.91027 16.4918 7.93258 16.5364 7.96234C16.6331 8.0144 16.7298 8.0739 16.8191 8.12597L13.5382 12.0754C13.1811 11.9341 12.7868 11.8002 12.3404 11.6812L9.77368 11.0192C9.50585 10.9597 9.2529 10.8779 9.03715 10.7961C9.03715 10.7961 9.03219 10.7961 9.02227 10.7961C9.02227 10.7961 9.01483 10.7887 9.00739 10.7887C8.98507 10.7738 8.94043 10.7589 8.90323 10.7366C8.89579 10.7292 8.88835 10.7217 8.87347 10.7217C8.80651 10.6845 8.73956 10.6548 8.73956 10.6548C8.54612 10.5581 8.39733 10.454 8.27829 10.3424C8.01046 10.0672 7.89143 9.73995 7.91374 9.33831C7.9435 8.78048 8.19646 8.37141 8.68748 8.10365C9.11154 7.86564 9.70672 7.74664 10.4433 7.74664C10.5697 7.74664 10.7036 7.74664 10.8524 7.76152C10.9417 7.76895 11.0384 7.77639 11.1352 7.78383C11.1426 7.78383 11.2021 7.7987 11.2988 7.82102C11.3137 7.82102 11.3211 7.82102 11.336 7.82846C11.3732 7.83589 11.4104 7.85077 11.4551 7.85821L11.7155 7.55326L14.2598 4.48892H7.13257C5.80086 4.48892 4.71465 5.5302 4.62538 6.84668H0.890625V0.799805H19.8397Z" fill="#262626"/>
<path d="M33.6857 10.7575V11.9773C32.5548 11.0252 31.0818 10.46 29.4004 10.46C28.0538 10.46 26.8188 10.8467 25.7772 11.5161C26.8337 11.9252 27.8827 12.3268 28.9391 12.7285C31.2454 13.5615 34.1246 14.6102 37.3163 15.6738V10.7575H33.6857ZM32.8599 15.6366C32.8599 15.6366 32.8599 15.6441 32.8673 15.6515C33.2542 16.2168 33.4699 16.8936 33.4699 17.6151C33.4699 19.5935 31.8704 21.1926 29.8914 21.1926C27.9124 21.1926 26.3129 19.5935 26.3129 17.6151C26.3129 15.9193 27.5181 14.4838 29.14 14.1491C29.1474 14.1491 29.1623 14.1416 29.1697 14.1416C27.6297 13.4946 26.1864 12.8623 24.8621 12.2376L24.8472 12.2525C23.4411 13.5615 22.5781 15.4804 22.5781 17.6151C22.5781 21.6017 25.5243 24.7999 29.4078 24.7999C31.0892 24.7999 32.5548 24.2272 33.6931 23.2826V24.5024H37.3237V17.2729C35.7986 16.7448 34.3032 16.1944 32.8673 15.6366H32.8599Z" fill="#262626"/>
<path d="M40.0234 18.1729V24.5024H43.6243V19.2588C42.4116 18.9167 41.2064 18.5522 40.0234 18.1729ZM43.6243 12.5425V10.7575H40.0234V16.5589C41.2212 16.9382 42.4562 17.3101 43.7061 17.6671C44.0707 14.7218 45.6107 14.0598 47.8277 14.0598V10.46C45.9827 10.46 44.5989 11.1889 43.6243 12.5425Z" fill="#262626"/>
<path d="M58.7037 14.1507V10.7665H54.9615V7.70215H51.3309V10.7665H49.0469V14.1507H51.3309V19.5876C52.5659 19.848 53.8083 20.0785 55.0284 20.2645C54.9912 20.0934 54.9689 19.9075 54.9689 19.7066V14.1507H58.7111H58.7037ZM58.9641 21.9231C56.561 21.8487 54.0166 21.5512 51.4425 21.0826C51.4425 21.0901 51.4425 21.1049 51.4425 21.1124C51.8889 23.6338 53.6149 24.7197 56.0997 24.7197C57.863 24.7197 59.1277 23.7751 59.9163 22.8751L58.9641 21.9231Z" fill="#262626"/>
<path d="M80.1211 4.76855C81.2073 4.76855 82.1001 5.66108 82.1001 6.74699C82.1001 7.8329 81.2073 8.72542 80.1211 8.72542C79.0349 8.72542 78.1719 7.8329 78.1719 6.74699C78.1719 5.66108 79.0423 4.76855 80.1211 4.76855ZM78.3281 10.7559H81.9364V24.5008H78.3281V10.7559Z" fill="#262626"/>
<path d="M65.4124 24.509H61.8125V21.9281C62.7125 21.8909 63.5976 21.8091 64.4455 21.6826C64.5496 22.7536 64.8471 23.8396 65.4049 24.509H65.4124Z" fill="#262626"/>
<path d="M70.7968 19.4156C70.2687 19.6536 69.7109 19.8544 69.1382 20.0403C69.0266 19.3635 69.3687 18.8726 69.9563 18.6123C70.1125 18.7759 70.2761 18.9396 70.4249 19.1106C70.5141 19.2148 70.6183 19.304 70.7298 19.3784C70.7522 19.3933 70.7745 19.4081 70.7968 19.423V19.4156Z" fill="#262626"/>
<path d="M75.4499 17.4136V24.5167H70.7554C70.8819 23.6688 70.2942 22.7911 69.8255 22.025C69.5353 21.549 69.3419 20.9912 69.208 20.4259C69.8329 20.1656 70.4207 19.8681 70.9786 19.5334C71.425 19.7863 71.9235 19.9722 72.1616 20.5003C72.1913 20.5747 72.4071 20.597 72.5335 20.597C73.2775 20.6044 73.7016 19.9425 73.3966 19.221C72.9948 18.2839 72.6154 17.3393 72.1169 16.4542C71.7598 15.822 71.4771 15.2121 71.5961 14.3419C71.3804 14.5947 71.2613 14.7286 71.0456 14.9815C71.1051 14.5501 71.1423 14.26 71.2018 13.8733C70.8968 14.1113 70.6215 14.2452 70.4579 14.4609C70.1677 14.8476 69.8478 14.8848 69.3791 14.8253C66.9761 14.5352 64.6028 16.7963 64.3052 19.0053C64.5061 19.0053 64.5433 18.5962 64.7665 18.5962C64.7665 18.6706 64.7739 18.7301 64.7516 18.7747C64.5433 19.2359 64.4168 20.0094 64.4168 20.8573C63.5687 20.9168 62.7056 20.9391 61.8203 20.9242V4.32324H65.4286V11.9395C66.3511 11.0172 67.601 10.4742 69.1485 10.4742C73.404 10.4742 75.4648 13.5609 75.4648 17.4136H75.4499Z" fill="#262626"/>
<path d="M16.8148 8.1241C16.7178 8.07188 16.6282 8.01965 16.5312 7.95996C16.6282 8.01219 16.7252 8.07188 16.8148 8.1241Z" fill="white"/>
<path d="M29.1662 14.1414C29.1662 14.1414 29.1439 14.1414 29.1365 14.1488C27.6039 13.5017 26.1606 12.8621 24.8438 12.2522L24.8586 12.2373C26.1829 12.8546 27.6262 13.4943 29.1662 14.1414Z" fill="white"/>
<path d="M37.308 17.272V17.2944C35.7828 16.7588 34.2949 16.2084 32.859 15.6506C32.859 15.6506 32.859 15.6432 32.8516 15.6357C34.2874 16.1936 35.7828 16.744 37.308 17.272Z" fill="white"/>
<path d="M43.6233 19.2568V19.2791C42.4184 18.937 41.2135 18.5725 40.0234 18.1858V18.1709C41.206 18.5502 42.4109 18.9147 43.6233 19.2568Z" fill="white"/>
<path d="M58.9967 21.9587C56.5787 21.8769 54.0343 21.5794 51.4453 21.1108C51.4453 21.1034 51.4453 21.0885 51.4453 21.0811C54.0269 21.5496 56.5639 21.8471 58.9669 21.9215L59.0041 21.9587H58.9967Z" fill="white"/>
<path d="M72.3921 18.5591C64.9002 24.2192 51.3301 20.9615 42.9307 18.6781C33.2813 15.7625 23.8105 12.0214 15.0391 7.03809C17.2784 8.19093 19.5847 9.2099 21.8985 10.1991C33.6384 15.1155 61.0985 26.1977 72.3921 18.5591Z" fill="#262626"/>
</svg>
